<svg width="48" height="41" viewBox="0 0 48 41" fill="none" xmlns="http://www.w3.org/2000/svg">
<rect width="48" height="41" rx="20.5" fill="#EBFDFF"/>
<path d="M23.46 34.0483L21.4872 32.4083C16.38 28.1515 13.5 24.3303 13.5 18.1967V17.0415C13.4966 14.5699 14.6304 12.1962 16.6572 10.4323C17.6531 9.56331 18.8422 8.87293 20.1546 8.4016C21.467 7.93028 22.8763 7.6875 24.3 7.6875C25.7237 7.6875 27.133 7.93028 28.4454 8.4016C29.7578 8.87293 30.9469 9.56331 31.9428 10.4323C33.9699 12.1961 35.1038 14.5699 35.1 17.0415V18.1967C35.1 24.3303 32.22 28.1504 27.1104 32.4042L25.1364 34.0442C24.9124 34.2302 24.6124 34.3342 24.3 34.3342C23.9876 34.3342 23.6876 34.2302 23.4636 34.0442L23.46 34.0483ZM15.9 17.0415V18.1967C15.9 23.7829 18.5268 27.0732 23.1648 30.9374C23.8308 31.4909 23.9496 31.5914 24.3 31.8825L25.434 30.9374C30.0732 27.0732 32.6988 23.7829 32.6988 18.1967V17.0415C32.7027 15.1087 31.8175 13.252 30.234 11.8714C29.4617 11.196 28.539 10.6594 27.5204 10.293C26.5018 9.92662 25.4077 9.73788 24.3024 9.73788C23.1972 9.73788 22.103 9.92662 21.0844 10.293C20.0657 10.6594 19.1432 11.196 18.3708 11.8714C16.7852 13.2512 15.8979 15.108 15.9 17.0415ZM19.5 16.9133C19.5 16.1024 19.7815 15.3097 20.309 14.6355C20.8364 13.9613 21.586 13.4358 22.4631 13.1254C23.3402 12.8151 24.3053 12.7339 25.2364 12.8921C26.1675 13.0503 27.0228 13.4408 27.6941 14.0142C28.3654 14.5876 28.8226 15.3182 29.0078 16.1135C29.193 16.9088 29.0979 17.7332 28.7346 18.4823C28.3713 19.2315 27.7561 19.8718 26.9668 20.3224C26.1774 20.7729 25.2494 21.0133 24.3 21.0133C23.0284 21.0093 21.8103 20.576 20.9112 19.808C20.012 19.04 19.5047 17.9995 19.5 16.9133ZM21.9 16.9133C21.9 17.3188 22.0407 17.7151 22.3045 18.0523C22.5682 18.3894 22.943 18.6521 23.3816 18.8073C23.8201 18.9624 24.3027 19.0031 24.7682 18.924C25.2338 18.8449 25.6614 18.6496 25.997 18.3629C26.3327 18.0762 26.5613 17.7109 26.6539 17.3133C26.7465 16.9156 26.699 16.5034 26.5173 16.1288C26.3357 15.7542 26.0281 15.4341 25.6334 15.2088C25.2387 14.9836 24.7747 14.8633 24.3 14.8633C23.9842 14.8613 23.671 14.9129 23.3788 15.0152C23.0865 15.1175 22.821 15.2684 22.5976 15.4592C22.3743 15.65 22.1976 15.8768 22.0778 16.1264C21.9581 16.3761 21.8976 16.6436 21.9 16.9133Z" fill="#75AF73"/>
</svg>
